<svg width="41" height="29" viewBox="0 0 41 29" fill="none" xmlns="http://www.w3.org/2000/svg">
<path d="M25.2533 19.4613C26.4836 21.4596 27.8204 23.3742 30.6524 23.3742C33.0311 23.3742 34.2791 22.192 34.2791 20.5564C34.2791 18.5991 32.9884 17.904 30.3716 16.7644L28.9369 16.1529C24.7964 14.3964 22.0427 12.1956 22.0427 7.54667C22.0427 3.26222 25.3227 0.0017768 30.448 0.0017768C34.0978 0.0017768 36.72 1.26578 38.6115 4.576L34.1422 7.43289C33.1591 5.67644 32.096 4.98489 30.448 4.98489C28.7662 4.98489 27.7013 6.04622 27.7013 7.43289C27.7013 9.14667 28.768 9.84 31.2302 10.9013L32.6649 11.5129C37.5449 13.5911 40.2969 15.7138 40.2969 20.4853C40.2969 25.6267 36.2364 28.4444 30.7858 28.4444C25.4542 28.4444 22.4267 25.7689 20.7413 22.4569L25.2533 19.4613ZM4.656 19.6071C5.55555 21.2178 6.92267 22.4569 8.88889 22.4569C10.7698 22.4569 11.8524 21.7138 11.8524 18.8249V0H17.7778V19.7351C17.7778 25.7209 14.3058 28.4444 9.23555 28.4444C4.65422 28.4444 1.34756 25.3404 0 22.4569L4.656 19.6071Z" fill="#000001"/>
</svg>
